<?xml version="1.0" standalone="no"?>
<!DOCTYPE svg PUBLIC "-//W3C//DTD SVG 20010904//EN"
 "http://www.w3.org/TR/2001/REC-SVG-20010904/DTD/svg10.dtd">
<svg version="1.0" xmlns="http://www.w3.org/2000/svg"
 width="128.000000pt" height="128.000000pt" viewBox="0 0 128.000000 128.000000"
 preserveAspectRatio="xMidYMid meet">

<g transform="translate(0.000000,128.000000) scale(0.100000,-0.100000)"
fill="#000000" stroke="none">
<path d="M0 640 l0 -640 640 0 640 0 0 640 0 640 -640 0 -640 0 0 -640z m407
368 c-3 -7 -5 -2 -5 12 0 14 2 19 5 13 2 -7 2 -19 0 -25z m113 12 c0 -11 -7
-20 -15 -20 -8 0 -15 9 -15 20 0 11 7 20 15 20 8 0 15 -9 15 -20z m27 -12 c-3
-7 -5 -2 -5 12 0 14 2 19 5 13 2 -7 2 -19 0 -25z m75 14 c4 -12 -1 -18 -13
-18 -22 0 -21 -1 -13 20 8 21 21 20 26 -2z m25 -14 c-3 -7 -5 -2 -5 12 0 14 2
19 5 13 2 -7 2 -19 0 -25z m83 12 c0 -9 -8 -16 -20 -16 -12 0 -20 7 -20 16 0
9 8 16 20 16 12 0 20 -7 20 -16z m36 0 c0 -11 -4 -20 -8 -20 -4 0 -8 9 -8 20
0 11 4 20 8 20 4 0 8 -9 8 -20z m59 0 c0 -7 -7 -15 -15 -17 -13 -4 -13 -3 0 6
13 10 13 12 0 22 -13 9 -13 10 0 6 8 -2 15 -10 15 -17z m75 1 c8 -17 7 -20
-10 -18 -11 1 -20 2 -20 3 0 7 13 34 16 34 2 0 8 -9 14 -19z m-43 -13 c-3 -8
-6 -5 -6 6 -1 11 2 17 5 13 3 -3 4 -12 1 -19z m-547 2 c0 -5 -7 -10 -15 -10
-8 0 -15 5 -15 10 0 6 7 10 15 10 8 0 15 -4 15 -10z m140 0 c0 -5 -5 -10 -11
-10 -5 0 -7 5 -4 10 3 6 8 10 11 10 2 0 4 -4 4 -10z m570 0 c0 -5 -7 -10 -15
-10 -8 0 -15 5 -15 10 0 6 7 10 15 10 8 0 15 -4 15 -10z m-680 -45 c-21 -25
-32 -17 -13 9 10 13 20 20 21 15 2 -5 -2 -16 -8 -24z m640 4 c6 -10 9 -19 6
-19 -9 0 -36 31 -36 41 0 14 18 1 30 -22z m-410 -19 c0 -5 -21 -10 -46 -10
-27 0 -43 4 -39 10 3 6 24 10 46 10 21 0 39 -4 39 -10z m200 2 c0 -5 -18 -14
-39 -21 -22 -6 -53 -27 -70 -46 -32 -37 -43 -27 -15 14 24 34 124 77 124 53z
m98 -19 c34 -21 18 -28 -22 -9 -19 9 -41 16 -50 16 -9 0 -16 5 -16 11 0 14 57
2 88 -18z m-329 -182 c-15 -5 -189 169 -189 189 0 8 45 -30 100 -85 55 -55 95
-102 89 -104z m325 88 c-49 -49 -95 -89 -104 -89 -8 0 30 45 85 100 55 55 102
95 104 89 2 -6 -36 -51 -85 -100z m-409 -194 c0 -38 -2 -40 -32 -43 -33 -3
-33 -3 -33 43 0 46 0 46 33 43 30 -3 32 -5 32 -43z m87 0 c10 -25 13 -45 8
-45 -5 0 -12 5 -15 10 -3 6 -15 10 -26 10 -10 0 -19 -4 -19 -10 0 -5 -5 -10
-11 -10 -6 0 -8 9 -3 23 25 82 42 88 66 22z m67 18 l20 -28 1 28 c0 15 5 27
10 27 6 0 10 -20 10 -45 0 -52 -10 -56 -39 -17 l-20 27 -1 -27 c0 -16 -4 -28
-10 -28 -5 0 -10 20 -10 45 0 52 10 56 39 18z m92 5 l18 -23 1 23 c0 12 5 22
10 22 6 0 10 -20 10 -45 0 -25 -3 -45 -7 -45 -4 0 -17 12 -30 28 l-22 27 -1
-27 c0 -16 -4 -28 -10 -28 -5 0 -10 20 -10 45 0 50 12 57 41 23z m119 12 c0
-5 -10 -10 -22 -11 -22 0 -22 -1 2 -11 25 -11 25 -11 3 -15 -28 -5 -30 -23 -3
-23 11 0 20 -4 20 -10 0 -5 -13 -10 -30 -10 -29 0 -30 2 -30 45 0 43 1 45 30
45 17 0 30 -4 30 -10z m90 -9 c5 -11 10 -24 10 -30 0 -18 -31 -41 -56 -41 -22
0 -24 4 -24 45 0 43 1 45 30 45 19 0 33 -7 40 -19z m-364 -138 c16 -17 16 -18
-7 -24 -16 -5 -18 -7 -6 -8 9 -1 17 -5 17 -11 0 -5 -8 -10 -17 -11 -12 -1 -10
-4 7 -9 l25 -8 -25 -1 c-24 -2 -24 -2 -6 -16 18 -14 17 -15 -25 -14 -24 1 -36
3 -26 6 9 2 17 9 17 14 0 5 -8 9 -17 10 -15 0 -15 2 -3 7 21 10 25 42 5 42
-18 0 -19 12 -3 28 17 17 44 15 64 -5z m-118 -46 c-12 -12 -35 -38 -49 -56
-17 -23 -30 -32 -38 -27 -9 6 3 25 45 67 33 33 60 55 62 49 2 -6 -7 -21 -20
-33z m487 -17 c32 -33 56 -63 52 -66 -4 -4 -36 23 -71 59 -35 37 -58 67 -52
67 6 0 38 -27 71 -60z m-465 -34 c0 -42 22 -66 60 -66 38 0 60 24 60 66 0 19
5 34 11 34 8 0 10 -14 6 -42 -8 -63 -56 -93 -112 -72 -32 13 -63 114 -35 114
6 0 10 -15 10 -34z m90 -20 c0 -2 -13 -6 -30 -8 -16 -3 -30 -1 -30 4 0 4 14 8
30 8 17 0 30 -2 30 -4z m-214 -30 c10 -8 16 -17 12 -21 -7 -7 -48 16 -48 27 0
12 14 9 36 -6z m684 6 c0 -5 -12 -14 -27 -21 l-28 -11 24 20 c26 22 31 24 31
12z m-700 -42 c0 -5 -7 -10 -15 -10 -8 0 -15 5 -15 10 0 6 7 10 15 10 8 0 15
-4 15 -10z m710 0 c0 -5 -4 -10 -10 -10 -5 0 -10 5 -10 10 0 6 5 10 10 10 6 0
10 -4 10 -10z m-330 -25 c0 -6 -9 -11 -20 -11 -11 0 -20 5 -20 11 0 6 9 11 20
11 11 0 20 -5 20 -11z m37 -7 c-3 -8 -6 -5 -6 6 -1 11 2 17 5 13 3 -3 4 -12 1
-19z m65 7 c0 -5 -5 -10 -11 -11 -8 -2 -7 -1 0 3 8 4 7 8 -2 15 -11 8 -11 9
-1 6 8 -2 14 -8 14 -13z m92 0 c3 -9 0 -15 -9 -15 -9 0 -12 6 -9 15 4 8 7 15
9 15 2 0 5 -7 9 -15z m-364 -20 c0 -14 -4 -25 -10 -25 -5 0 -10 11 -10 25 0
14 5 25 10 25 6 0 10 -11 10 -25z m8 -202 c-10 -2 -26 -2 -35 0 -10 3 -2 5 17
5 19 0 27 -2 18 -5z"/>
<path d="M418 663 c7 -3 16 -2 19 1 4 3 -2 6 -13 5 -11 0 -14 -3 -6 -6z"/>
<path d="M410 630 c0 -5 7 -10 15 -10 8 0 15 5 15 10 0 6 -7 10 -15 10 -8 0
-15 -4 -15 -10z"/>
<path d="M506 651 c-4 -7 -5 -15 -2 -18 9 -9 19 4 14 18 -4 11 -6 11 -12 0z"/>
<path d="M860 645 c0 -26 24 -35 32 -12 7 18 -2 37 -18 37 -8 0 -14 -10 -14
-25z"/>
</g>
</svg>
